<?xml version="1.0" encoding="UTF-8" standalone="no"?>
<svg
   xmlns:dc="http://purl.org/dc/elements/1.1/"
   xmlns:cc="http://creativecommons.org/ns#"
   xmlns:rdf="http://www.w3.org/1999/02/22-rdf-syntax-ns#"
   xmlns:svg="http://www.w3.org/2000/svg"
   xmlns="http://www.w3.org/2000/svg"
   xmlns:sodipodi="http://sodipodi.sourceforge.net/DTD/sodipodi-0.dtd"
   xmlns:inkscape="http://www.inkscape.org/namespaces/inkscape"
   width="720pt"
   height="331pt"
   viewBox="0 0 720 331"
   version="1.1"
   id="svg3506"
   inkscape:version="0.91 r13725"
   sodipodi:docname="Sigmoid-function-2.svg">
  <metadata
     id="metadata3636">
    <rdf:RDF>
      <cc:Work
         rdf:about="">
        <dc:format>image/svg+xml</dc:format>
        <dc:type
           rdf:resource="http://purl.org/dc/dcmitype/StillImage" />
      </cc:Work>
    </rdf:RDF>
  </metadata>
  <sodipodi:namedview
     pagecolor="#ffffff"
     bordercolor="#666666"
     borderopacity="1"
     objecttolerance="10"
     gridtolerance="10"
     guidetolerance="10"
     inkscape:pageopacity="0"
     inkscape:pageshadow="2"
     inkscape:window-width="2495"
     inkscape:window-height="1416"
     id="namedview3634"
     showgrid="false"
     inkscape:zoom="1.6342024"
     inkscape:cx="496.39576"
     inkscape:cy="212.6767"
     inkscape:window-x="1985"
     inkscape:window-y="24"
     inkscape:window-maximized="1"
     inkscape:current-layer="surface1" />
  <defs
     id="defs3508">
    <clipPath
       id="clip1">
      <path
         d="M 23 3.824219 L 697 3.824219 L 697 321.457031 L 23 321.457031 Z M 23 3.824219 "
         id="path3511" />
    </clipPath>
  </defs>
  <g
     inkscape:groupmode="layer"
     id="layer2"
     inkscape:label="Layer 2"
     style="display:none"
     sodipodi:insensitive="true">
    <rect
       style="fill:#ffffff;fill-opacity:1;stroke:#ffffff;stroke-width:0.69520003;stroke-miterlimit:10;stroke-dasharray:none;stroke-opacity:1"
       id="rect4314"
       width="2.9372127"
       height="0.97907084"
       x="769.54968"
       y="82.315994" />
    <rect
       style="fill:#00ffff;fill-opacity:1;stroke:#ffffff;stroke-width:0.69520003;stroke-miterlimit:10;stroke-dasharray:none;stroke-opacity:1"
       id="rect4316"
       width="812.13928"
       height="390.64929"
       x="-32.309338"
       y="-37.62019" />
  </g>
  <g
     id="surface1"
     transform="translate(1.9581418,1.4686063)">
    <path
       style="fill:none;stroke:#d9d9d9;stroke-width:0.3985;stroke-linecap:butt;stroke-linejoin:miter;stroke-miterlimit:10;stroke-dasharray:2.98883, 2.98883;stroke-opacity:1"
       d="m 0.001375,-15.164695 0,181.943145 m 42.574479,-181.943145 0,181.943145 m 42.574479,-181.943145 0,181.943145 m 42.572237,-181.943145 0,181.943145 m 85.14896,-181.943145 0,181.943145 m 42.57448,-181.943145 0,181.943145 m 42.57896,-181.943145 0,181.943145 m 42.57448,-181.943145 0,181.943145"
       transform="matrix(1.744186,0,0,-1.745781,63.231977,294.9828)"
       id="path3514"
       inkscape:connector-curvature="0" />
    <path
       style="fill:none;stroke:#d9d9d9;stroke-width:0.3985;stroke-linecap:butt;stroke-linejoin:miter;stroke-miterlimit:10;stroke-dasharray:2.98883, 2.98883;stroke-opacity:1"
       d="m -34.062688,30.324448 408.719478,0 m -408.719478,30.325349 408.719478,0 m -408.719478,30.318637 408.719478,0 m -408.719478,30.325346 408.719478,0 m -408.719478,30.32311 408.719478,0"
       id="path3516"
       transform="matrix(1.744186,0,0,-1.745781,63.231977,294.9828)"
       inkscape:connector-curvature="0" />
    <path
       style="fill:none;stroke:#ffffff;stroke-width:0.19925;stroke-linecap:butt;stroke-linejoin:miter;stroke-miterlimit:10;stroke-opacity:1"
       d="m 0.001375,-4.254461 0,4.25579673 m 42.574479,-4.25579673 0,4.25579673 m 42.574479,-4.25579673 0,4.25579673 m 42.572237,-4.25579673 0,4.25579673 m 85.14896,-4.25579673 0,4.25579673 m 42.57448,-4.25579673 0,4.25579673 m 42.57896,-4.25579673 0,4.25579673 m 42.57448,-4.25579673 0,4.25579673"
       transform="matrix(1.744186,0,0,-1.745781,63.231977,294.9828)"
       id="path3518"
       inkscape:connector-curvature="0" />
    <path
       style="fill:none;stroke:#7f7f7f;stroke-width:0.19925;stroke-linecap:butt;stroke-linejoin:miter;stroke-miterlimit:10;stroke-opacity:1"
       d="m 166.04856,30.324448 4.24849,0 m -4.24849,30.325349 4.24849,0 m -4.24849,30.318637 4.24849,0 m -4.24849,30.325346 4.24849,0 m -4.24849,30.32311 4.24849,0"
       transform="matrix(1.744186,0,0,-1.745781,63.231977,294.9828)"
       id="path3520"
       inkscape:connector-curvature="0" />
    <path
       style="fill:none;stroke:#ffffff;stroke-width:0.3985;stroke-linecap:butt;stroke-linejoin:miter;stroke-miterlimit:10;stroke-opacity:1"
       d="m -34.062688,0.00133573 406.728488,0"
       transform="matrix(1.744186,0,0,-1.745781,63.231977,294.9828)"
       id="path3522"
       inkscape:connector-curvature="0" />
    <path
       style="fill:#ffffff;fill-opacity:1;fill-rule:nonzero;stroke:none"
       d="m 716.70312,294.98047 -5.55859,-2.78125 2.08594,2.78125 -2.08594,2.78515"
       id="path3524"
       inkscape:connector-curvature="0" />
    <path
       style="fill:none;stroke:#ffffff;stroke-width:0.39839923;stroke-linecap:butt;stroke-linejoin:miter;stroke-miterlimit:10;stroke-dasharray:none;stroke-opacity:1"
       d="m 170.29705,-15.164695 0,179.949495"
       transform="matrix(1.744186,0,0,-1.745781,63.231977,294.9828)"
       id="path3526"
       inkscape:connector-curvature="0" />
    <path
       style="fill:#ffffff;fill-opacity:1;fill-rule:nonzero;stroke:none;stroke-width:0.69520003;stroke-miterlimit:10;stroke-dasharray:none"
       d="m 360.26172,3.824219 -2.77735,5.566406 2.77735,-2.085937 2.78125,2.085937"
       id="path3528"
       inkscape:connector-curvature="0" />
    <path
       style="fill:#ffffff;fill-opacity:1;fill-rule:nonzero;stroke:none"
       d="m 63.578125,315.75 c 0.296875,0 0.625,0 0.625,-0.35547 0,-0.32422 -0.328125,-0.32422 -0.625,-0.32422 l -9.402344,0 c -0.300781,0 -0.601562,0 -0.601562,0.32422 0,0.35547 0.300781,0.35547 0.601562,0.35547 z m 0,0"
       id="path3530"
       inkscape:connector-curvature="0" />
    <path
       style="fill:#ffffff;fill-opacity:1;fill-rule:nonzero;stroke:none"
       d="m 68.480469,311.79687 c -0.789063,-0.51953 -0.871094,-1.09375 -0.871094,-1.39062 0,-1.06641 1.144531,-1.80078 2.371094,-1.80078 1.253906,0 2.371093,0.89844 2.371093,2.15234 0,1.01172 -0.683593,1.82813 -1.71875,2.42969 z m 2.535156,1.66407 c 1.253906,-0.65625 2.097656,-1.55469 2.097656,-2.70313 0,-1.60937 -1.527343,-2.58984 -3.105469,-2.58984 -1.746093,0 -3.164062,1.28125 -3.164062,2.91797 0,0.30078 0.02734,1.08984 0.765625,1.91015 0.191406,0.19141 0.84375,0.62891 1.28125,0.92578 -1.011719,0.51954 -2.507813,1.47266 -2.507813,3.21875 0,1.82813 1.769532,3 3.597657,3 1.960937,0 3.625,-1.44531 3.625,-3.29687 0,-0.62891 -0.191407,-1.42188 -0.875,-2.15625 -0.324219,-0.35547 -0.597657,-0.51953 -1.714844,-1.22656 z m -1.746094,0.73437 2.152344,1.36328 c 0.492187,0.32813 1.308594,0.84766 1.308594,1.91016 0,1.28125 -1.308594,2.18359 -2.722657,2.18359 -1.5,0 -2.753906,-1.0664 -2.753906,-2.51172 0,-1.00781 0.546875,-2.125 2.015625,-2.94531 z m 0,0"
       id="path3532"
       inkscape:connector-curvature="0" />
    <path
       style="fill:#ffffff;fill-opacity:1;fill-rule:nonzero;stroke:none"
       d="m 137.83203,315.75 c 0.30078,0 0.62891,0 0.62891,-0.35547 0,-0.32422 -0.32813,-0.32422 -0.62891,-0.32422 l -9.40234,0 c -0.29688,0 -0.59766,0 -0.59766,0.32422 0,0.35547 0.30078,0.35547 0.59766,0.35547 z m 0,0"
       id="path3534"
       inkscape:connector-curvature="0" />
    <path
       style="fill:#ffffff;fill-opacity:1;fill-rule:nonzero;stroke:none"
       d="m 142.19141,314.05859 0,-0.43359 c 0,-4.39453 2.15234,-5.01953 3.05468,-5.01953 0.40625,0 1.14453,0.10937 1.52344,0.70703 -0.26953,0 -0.95312,0 -0.95312,0.76562 0,0.54297 0.41015,0.81641 0.78906,0.81641 0.27344,0 0.82031,-0.16406 0.82031,-0.84375 0,-1.03906 -0.76562,-1.88281 -2.20703,-1.88281 -2.23438,0 -4.57813,2.23828 -4.57813,6.08203 0,4.66406 2.01563,5.89062 3.6211,5.89062 1.9375,0 3.59765,-1.63281 3.59765,-3.92578 0,-2.21093 -1.55078,-3.875 -3.48828,-3.875 -1.17187,0 -1.82422,0.875 -2.17968,1.71875 z m 2.07031,5.59375 c -1.08985,0 -1.60547,-1.03906 -1.71485,-1.30859 -0.32812,-0.82031 -0.32812,-2.21094 -0.32812,-2.51172 0,-1.36328 0.57422,-3.10937 2.125,-3.10937 0.30078,0 1.08984,0 1.63672,1.08984 0.30078,0.62891 0.30078,1.52734 0.30078,2.375 0,0.84375 0,1.71875 -0.30078,2.34375 -0.51953,1.03906 -1.3086,1.12109 -1.71875,1.12109 z m 0,0"
       id="path3536"
       inkscape:connector-curvature="0" />
    <path
       style="fill:#ffffff;fill-opacity:1;fill-rule:nonzero;stroke:none"
       d="m 212.08984,315.75 c 0.30078,0 0.62891,0 0.62891,-0.35547 0,-0.32422 -0.32813,-0.32422 -0.62891,-0.32422 l -9.40234,0 c -0.30078,0 -0.59766,0 -0.59766,0.32422 0,0.35547 0.29688,0.35547 0.59766,0.35547 z m 0,0"
       id="path3538"
       inkscape:connector-curvature="0" />
    <path
       style="fill:#ffffff;fill-opacity:1;fill-rule:nonzero;stroke:none"
       d="m 219.28516,316.89844 0,1.5 c 0,0.625 -0.0547,0.8164 -1.33594,0.8164 l -0.35547,0 0,0.54688 c 0.70703,-0.0547 1.60937,-0.0547 2.34375,-0.0547 0.73437,0 1.63672,0 2.37109,0.0547 l 0,-0.54688 -0.38281,0 c -1.28125,0 -1.30859,-0.1914 -1.30859,-0.8164 l 0,-1.5 1.71875,0 0,-0.54688 -1.71875,0 0,-7.91015 c 0,-0.35547 0,-0.46485 -0.29688,-0.46485 -0.13672,0 -0.1914,0 -0.32812,0.21875 l -5.33985,8.15625 0,0.54688 z m 0.0781,-0.54688 -4.22266,0 4.22266,-6.49219 z m 0,0"
       id="path3540"
       inkscape:connector-curvature="0" />
    <path
       style="fill:#ffffff;fill-opacity:1;fill-rule:nonzero;stroke:none"
       d="m 286.34766,315.75 c 0.30078,0 0.625,0 0.625,-0.35547 0,-0.32422 -0.32422,-0.32422 -0.625,-0.32422 l -9.40235,0 c -0.30078,0 -0.60156,0 -0.60156,0.32422 0,0.35547 0.30078,0.35547 0.60156,0.35547 z m 0,0"
       id="path3542"
       inkscape:connector-curvature="0" />
    <path
       style="fill:#ffffff;fill-opacity:1;fill-rule:nonzero;stroke:none"
       d="m 290.625,318.42578 1.85156,-1.80078 c 2.69922,-2.40234 3.73438,-3.32813 3.73438,-5.07422 0,-1.99219 -1.55469,-3.38281 -3.67969,-3.38281 -1.96094,0 -3.24219,1.60937 -3.24219,3.16406 0,0.95313 0.8711,0.95313 0.92578,0.95313 0.30078,0 0.89844,-0.19141 0.89844,-0.92579 0,-0.4375 -0.32422,-0.90234 -0.92578,-0.90234 -0.13672,0 -0.16406,0 -0.21875,0.0273 0.38281,-1.14453 1.33594,-1.76953 2.34375,-1.76953 1.58203,0 2.31641,1.41797 2.31641,2.83594 0,1.39063 -0.84375,2.75391 -1.82422,3.84375 l -3.32422,3.71094 c -0.19141,0.1914 -0.19141,0.24609 -0.19141,0.65625 l 6.45703,0 0.46485,-3.02735 -0.41016,0 c -0.10547,0.51563 -0.21484,1.28125 -0.40625,1.55469 -0.10937,0.13672 -1.25391,0.13672 -1.63672,0.13672 z m 0,0"
       id="path3544"
       inkscape:connector-curvature="0" />
    <path
       style="fill:#ffffff;fill-opacity:1;fill-rule:nonzero;stroke:none"
       d="m 432.38281,318.42578 1.85156,-1.80078 c 2.69922,-2.40234 3.73438,-3.32813 3.73438,-5.07422 0,-1.99219 -1.55469,-3.38281 -3.67969,-3.38281 -1.96094,0 -3.24219,1.60937 -3.24219,3.16406 0,0.95313 0.8711,0.95313 0.92579,0.95313 0.30078,0 0.89843,-0.19141 0.89843,-0.92579 0,-0.4375 -0.32812,-0.90234 -0.92578,-0.90234 -0.13672,0 -0.16406,0 -0.21875,0.0273 0.38281,-1.14453 1.33594,-1.76953 2.34375,-1.76953 1.58203,0 2.31641,1.41797 2.31641,2.83594 0,1.39063 -0.84375,2.75391 -1.82422,3.84375 l -3.32422,3.71094 c -0.19141,0.1914 -0.19141,0.24609 -0.19141,0.65625 l 6.45704,0 0.46484,-3.02735 -0.41016,0 c -0.10937,0.51563 -0.21875,1.28125 -0.40625,1.55469 -0.10937,0.13672 -1.2539,0.13672 -1.63672,0.13672 z m 0,0"
       id="path3546"
       inkscape:connector-curvature="0" />
    <path
       style="fill:#ffffff;fill-opacity:1;fill-rule:nonzero;stroke:none"
       d="m 509.55469,316.89844 0,1.5 c 0,0.625 -0.0547,0.8164 -1.33594,0.8164 l -0.35547,0 0,0.54688 c 0.71094,-0.0547 1.60938,-0.0547 2.34375,-0.0547 0.73828,0 1.63672,0 2.37109,0.0547 l 0,-0.54688 -0.3789,0 c -1.28125,0 -1.3086,-0.1914 -1.3086,-0.8164 l 0,-1.5 1.71485,0 0,-0.54688 -1.71485,0 0,-7.91015 c 0,-0.35547 0,-0.46485 -0.30078,-0.46485 -0.13672,0 -0.1914,0 -0.32812,0.21875 l -5.33985,8.15625 0,0.54688 z m 0.082,-0.54688 -4.22656,0 4.22656,-6.49219 z m 0,0"
       id="path3548"
       inkscape:connector-curvature="0" />
    <path
       style="fill:#ffffff;fill-opacity:1;fill-rule:nonzero;stroke:none"
       d="m 580.97656,314.05859 0,-0.43359 c 0,-4.39453 2.15235,-5.01953 3.05469,-5.01953 0.40625,0 1.14453,0.10937 1.52344,0.70703 -0.27344,0 -0.95313,0 -0.95313,0.76562 0,0.54297 0.41016,0.81641 0.78906,0.81641 0.27344,0 0.82032,-0.16406 0.82032,-0.84375 0,-1.03906 -0.76563,-1.88281 -2.20703,-1.88281 -2.23829,0 -4.58204,2.23828 -4.58204,6.08203 0,4.66406 2.01954,5.89062 3.625,5.89062 1.9375,0 3.59766,-1.63281 3.59766,-3.92578 0,-2.21093 -1.55078,-3.875 -3.48828,-3.875 -1.17188,0 -1.82422,0.875 -2.17969,1.71875 z m 2.07031,5.59375 c -1.08984,0 -1.60546,-1.03906 -1.71484,-1.30859 -0.32812,-0.82031 -0.32812,-2.21094 -0.32812,-2.51172 0,-1.36328 0.57421,-3.10937 2.125,-3.10937 0.30078,0 1.08984,0 1.63671,1.08984 0.30079,0.62891 0.30079,1.52734 0.30079,2.375 0,0.84375 0,1.71875 -0.30079,2.34375 -0.51953,1.03906 -1.30859,1.12109 -1.71875,1.12109 z m 0,0"
       id="path3550"
       inkscape:connector-curvature="0" />
    <path
       style="fill:#ffffff;fill-opacity:1;fill-rule:nonzero;stroke:none"
       d="m 655.77734,311.79687 c -0.78906,-0.51953 -0.87109,-1.09375 -0.87109,-1.39062 0,-1.06641 1.14453,-1.80078 2.37109,-1.80078 1.25391,0 2.3711,0.89844 2.3711,2.15234 0,1.01172 -0.67969,1.82813 -1.71485,2.42969 z m 2.53516,1.66407 c 1.25391,-0.65625 2.09766,-1.55469 2.09766,-2.70313 0,-1.60937 -1.52344,-2.58984 -3.10547,-2.58984 -1.74219,0 -3.16016,1.28125 -3.16016,2.91797 0,0.30078 0.0273,1.08984 0.76172,1.91015 0.19141,0.19141 0.84375,0.62891 1.28125,0.92578 -1.00781,0.51954 -2.50781,1.47266 -2.50781,3.21875 0,1.82813 1.77343,3 3.59765,3 1.96094,0 3.625,-1.44531 3.625,-3.29687 0,-0.62891 -0.1914,-1.42188 -0.87109,-2.15625 -0.32813,-0.35547 -0.60156,-0.51953 -1.71875,-1.22656 z m -1.74219,0.73437 2.15235,1.36328 c 0.49218,0.32813 1.30859,0.84766 1.30859,1.91016 0,1.28125 -1.30859,2.18359 -2.72656,2.18359 -1.5,0 -2.75391,-1.0664 -2.75391,-2.51172 0,-1.00781 0.54688,-2.125 2.01953,-2.94531 z m 0,0"
       id="path3552"
       inkscape:connector-curvature="0" />
    <path
       style="fill:#ffffff;fill-opacity:1;fill-rule:nonzero;stroke:none"
       d="m 332.48828,242.08594 c 0,-1.39063 -0.082,-2.78125 -0.68359,-4.0625 -0.78907,-1.69141 -2.23438,-1.96485 -2.94141,-1.96485 -1.0625,0 -2.31641,0.46485 -3.05469,2.07422 -0.54297,1.19922 -0.625,2.5625 -0.625,3.95313 0,1.30859 0.0547,2.86328 0.78907,4.20312 0.73828,1.39063 2.01953,1.74219 2.86328,1.74219 0.92578,0 2.26172,-0.35156 3.02343,-2.01563 0.54688,-1.20312 0.62891,-2.5664 0.62891,-3.92968 z m -3.65234,5.5664 c -0.6836,0 -1.71875,-0.4375 -2.01563,-2.10156 -0.1914,-1.03516 -0.1914,-2.64453 -0.1914,-3.68359 0,-1.11719 0,-2.26172 0.13671,-3.19141 0.32422,-2.07031 1.63282,-2.23437 2.07032,-2.23437 0.57031,0 1.71484,0.32421 2.04297,2.04296 0.1914,0.98438 0.1914,2.29297 0.1914,3.38282 0,1.30859 0,2.48437 -0.1914,3.60156 -0.27344,1.66406 -1.25391,2.18359 -2.04297,2.18359 z m 0,0"
       id="path3554"
       inkscape:connector-curvature="0" />
    <path
       style="fill:#ffffff;fill-opacity:1;fill-rule:nonzero;stroke:none"
       d="m 336.51562,246.72266 c 0,-0.48829 -0.41015,-0.92579 -0.89843,-0.92579 -0.51953,0 -0.92969,0.4375 -0.92969,0.92579 0,0.51953 0.41016,0.92968 0.92969,0.92968 0.48828,0 0.89843,-0.41015 0.89843,-0.92968 z m 0,0"
       id="path3556"
       inkscape:connector-curvature="0" />
    <path
       style="fill:#ffffff;fill-opacity:1;fill-rule:nonzero;stroke:none"
       d="m 340.22656,246.31641 1.85156,-1.80079 c 2.69922,-2.40234 3.73438,-3.32812 3.73438,-5.07421 0,-1.99219 -1.55469,-3.38282 -3.67969,-3.38282 -1.96094,0 -3.24219,1.60938 -3.24219,3.16407 0,0.95312 0.8711,0.95312 0.92579,0.95312 0.30078,0 0.89843,-0.19141 0.89843,-0.92578 0,-0.4375 -0.32422,-0.90234 -0.92578,-0.90234 -0.13672,0 -0.16406,0 -0.21875,0.0273 0.38281,-1.14453 1.33594,-1.76953 2.34375,-1.76953 1.58203,0 2.31641,1.41797 2.31641,2.83594 0,1.39062 -0.84375,2.7539 -1.82422,3.84375 l -3.32422,3.71093 c -0.19141,0.19141 -0.19141,0.2461 -0.19141,0.65625 l 6.45704,0 0.46484,-3.02734 -0.41016,0 c -0.10937,0.51562 -0.21875,1.28125 -0.40625,1.55469 -0.10937,0.13672 -1.2539,0.13672 -1.63672,0.13672 z m 0,0"
       id="path3558"
       inkscape:connector-curvature="0" />
    <path
       style="fill:#ffffff;fill-opacity:1;fill-rule:nonzero;stroke:none"
       d="m 332.48828,189.14844 c 0,-1.39063 -0.082,-2.78516 -0.68359,-4.06641 -0.78907,-1.69141 -2.23438,-1.96484 -2.94141,-1.96484 -1.0625,0 -2.31641,0.46484 -3.05469,2.07422 -0.54297,1.19921 -0.625,2.5664 -0.625,3.95703 0,1.30859 0.0547,2.86328 0.78907,4.19922 0.73828,1.39062 2.01953,1.74609 2.86328,1.74609 0.92578,0 2.26172,-0.35547 3.02343,-2.01953 0.54688,-1.19922 0.62891,-2.5625 0.62891,-3.92578 z m -3.65234,5.5625 c -0.6836,0 -1.71875,-0.4336 -2.01563,-2.09766 -0.1914,-1.03906 -0.1914,-2.64844 -0.1914,-3.68359 0,-1.11719 0,-2.26563 0.13671,-3.19141 0.32422,-2.07422 1.63282,-2.23828 2.07032,-2.23828 0.57031,0 1.71484,0.32812 2.04297,2.04687 0.1914,0.98047 0.1914,2.29297 0.1914,3.38282 0,1.30859 0,2.48047 -0.1914,3.60156 -0.27344,1.66406 -1.25391,2.17969 -2.04297,2.17969 z m 0,0"
       id="path3560"
       inkscape:connector-curvature="0" />
    <path
       style="fill:#ffffff;fill-opacity:1;fill-rule:nonzero;stroke:none"
       d="m 336.51562,193.78516 c 0,-0.49219 -0.41015,-0.92969 -0.89843,-0.92969 -0.51953,0 -0.92969,0.4375 -0.92969,0.92969 0,0.51953 0.41016,0.92578 0.92969,0.92578 0.48828,0 0.89843,-0.40625 0.89843,-0.92578 z m 0,0"
       id="path3562"
       inkscape:connector-curvature="0" />
    <path
       style="fill:#ffffff;fill-opacity:1;fill-rule:nonzero;stroke:none"
       d="m 343.14062,191.84766 0,1.5 c 0,0.6289 -0.0547,0.82031 -1.33593,0.82031 l -0.35157,0 0,0.54297 c 0.70704,-0.0547 1.60547,-0.0547 2.34375,-0.0547 0.73438,0 1.63282,0 2.3711,0.0547 l 0,-0.54297 -0.38281,0 c -1.28125,0 -1.3086,-0.19141 -1.3086,-0.82031 l 0,-1.5 1.71875,0 0,-0.54688 -1.71875,0 0,-7.91016 c 0,-0.35156 0,-0.46093 -0.30078,-0.46093 -0.13672,0 -0.1875,0 -0.32422,0.21484 l -5.34375,8.15625 0,0.54688 z m 0.082,-0.54688 -4.22266,0 4.22266,-6.49219 z m 0,0"
       id="path3564"
       inkscape:connector-curvature="0" />
    <path
       style="fill:#ffffff;fill-opacity:1;fill-rule:nonzero;stroke:none"
       d="m 332.48828,136.21094 c 0,-1.39063 -0.082,-2.78125 -0.68359,-4.06641 -0.78907,-1.69141 -2.23438,-1.96094 -2.94141,-1.96094 -1.0625,0 -2.31641,0.46094 -3.05469,2.07032 -0.54297,1.20312 -0.625,2.5664 -0.625,3.95703 0,1.30859 0.0547,2.86328 0.78907,4.19922 0.73828,1.39062 2.01953,1.74609 2.86328,1.74609 0.92578,0 2.26172,-0.35547 3.02343,-2.01953 0.54688,-1.19922 0.62891,-2.5625 0.62891,-3.92578 z m -3.65234,5.5625 c -0.6836,0 -1.71875,-0.4336 -2.01563,-2.09766 -0.1914,-1.03906 -0.1914,-2.64844 -0.1914,-3.68359 0,-1.11719 0,-2.26563 0.13671,-3.19141 0.32422,-2.07422 1.63282,-2.23828 2.07032,-2.23828 0.57031,0 1.71484,0.32812 2.04297,2.04687 0.1914,0.98047 0.1914,2.29297 0.1914,3.38282 0,1.30859 0,2.48047 -0.1914,3.60156 -0.27344,1.66406 -1.25391,2.17969 -2.04297,2.17969 z m 0,0"
       id="path3566"
       inkscape:connector-curvature="0" />
    <path
       style="fill:#ffffff;fill-opacity:1;fill-rule:nonzero;stroke:none"
       d="m 336.51562,140.84766 c 0,-0.49219 -0.41015,-0.92579 -0.89843,-0.92579 -0.51953,0 -0.92969,0.4336 -0.92969,0.92579 0,0.51953 0.41016,0.92578 0.92969,0.92578 0.48828,0 0.89843,-0.40625 0.89843,-0.92578 z m 0,0"
       id="path3568"
       inkscape:connector-curvature="0" />
    <path
       style="fill:#ffffff;fill-opacity:1;fill-rule:nonzero;stroke:none"
       d="m 340.30859,136.07422 0,-0.4375 c 0,-4.39063 2.15235,-5.01953 3.05078,-5.01953 0.41016,0 1.14454,0.10937 1.52735,0.71093 -0.27344,0 -0.95313,0 -0.95313,0.76172 0,0.54688 0.40625,0.82032 0.78907,0.82032 0.27343,0 0.8164,-0.16407 0.8164,-0.84766 0,-1.03516 -0.76172,-1.87891 -2.20703,-1.87891 -2.23437,0 -4.57812,2.23438 -4.57812,6.08203 0,4.66407 2.01562,5.89063 3.625,5.89063 1.93359,0 3.59765,-1.63672 3.59765,-3.92578 0,-2.21094 -1.55469,-3.875 -3.48828,-3.875 -1.17187,0 -1.82812,0.87109 -2.17969,1.71875 z m 2.07032,5.58984 c -1.08985,0 -1.60938,-1.03515 -1.71875,-1.30859 -0.32422,-0.81641 -0.32422,-2.20703 -0.32422,-2.50781 0,-1.36329 0.57031,-3.10938 2.125,-3.10938 0.30078,0 1.08984,0 1.63281,1.08984 0.30078,0.62891 0.30078,1.52735 0.30078,2.375 0,0.84375 0,1.71875 -0.30078,2.34375 -0.51563,1.03516 -1.30469,1.11719 -1.71484,1.11719 z m 0,0"
       id="path3570"
       inkscape:connector-curvature="0" />
    <path
       style="fill:#ffffff;fill-opacity:1;fill-rule:nonzero;stroke:none"
       d="m 332.48828,83.273438 c 0,-1.390626 -0.082,-2.78125 -0.68359,-4.066407 -0.78907,-1.691406 -2.23438,-1.960937 -2.94141,-1.960937 -1.0625,0 -2.31641,0.460937 -3.05469,2.070312 -0.54297,1.203125 -0.625,2.566406 -0.625,3.957032 0,1.308593 0.0547,2.863281 0.78907,4.199218 0.73828,1.390625 2.01953,1.746094 2.86328,1.746094 0.92578,0 2.26172,-0.355469 3.02343,-2.019531 0.54688,-1.199219 0.62891,-2.5625 0.62891,-3.925781 z m -3.65234,5.5625 c -0.6836,0 -1.71875,-0.433594 -2.01563,-2.097657 -0.1914,-1.039062 -0.1914,-2.648437 -0.1914,-3.683593 0,-1.117188 0,-2.265626 0.13671,-3.191407 0.32422,-2.074219 1.63282,-2.238281 2.07032,-2.238281 0.57031,0 1.71484,0.328125 2.04297,2.046875 0.1914,0.980469 0.1914,2.292969 0.1914,3.382813 0,1.308593 0,2.480468 -0.1914,3.601562 -0.27344,1.664062 -1.25391,2.179688 -2.04297,2.179688 z m 0,0"
       id="path3572"
       inkscape:connector-curvature="0" />
    <path
       style="fill:#ffffff;fill-opacity:1;fill-rule:nonzero;stroke:none"
       d="m 336.51562,87.910156 c 0,-0.492187 -0.41015,-0.925781 -0.89843,-0.925781 -0.51953,0 -0.92969,0.433594 -0.92969,0.925781 0,0.519532 0.41016,0.925782 0.92969,0.925782 0.48828,0 0.89843,-0.40625 0.89843,-0.925782 z m 0,0"
       id="path3574"
       inkscape:connector-curvature="0" />
    <path
       style="fill:#ffffff;fill-opacity:1;fill-rule:nonzero;stroke:none"
       d="m 340.85156,80.871094 c -0.78906,-0.515625 -0.87109,-1.089844 -0.87109,-1.390625 0,-1.0625 1.14453,-1.800781 2.37109,-1.800781 1.25391,0 2.3711,0.902343 2.3711,2.15625 0,1.007812 -0.6836,1.828124 -1.71875,2.425781 z m 2.53516,1.664062 c 1.2539,-0.652344 2.09765,-1.554687 2.09765,-2.699218 0,-1.609376 -1.52343,-2.589844 -3.10546,-2.589844 -1.7461,0 -3.16016,1.28125 -3.16016,2.917968 0,0.300782 0.0273,1.089844 0.76172,1.910157 0.1914,0.1875 0.84375,0.625 1.28125,0.925781 -1.00781,0.519531 -2.50781,1.472656 -2.50781,3.21875 0,1.828125 1.76953,3 3.59765,3 1.96094,0 3.625,-1.445312 3.625,-3.300781 0,-0.625 -0.1914,-1.417969 -0.87109,-2.152344 -0.32813,-0.355469 -0.60156,-0.519531 -1.71875,-1.230469 z m -1.74219,0.738282 2.15234,1.363281 c 0.48829,0.328125 1.3086,0.84375 1.3086,1.910156 0,1.28125 -1.3086,2.179687 -2.72656,2.179687 -1.5,0 -2.75391,-1.0625 -2.75391,-2.507812 0,-1.007812 0.54687,-2.128906 2.01953,-2.945312 z m 0,0"
       id="path3576"
       inkscape:connector-curvature="0" />
    <path
       style="fill:#ffffff;fill-opacity:1;fill-rule:nonzero;stroke:none"
       d="m 329.625,24.769531 c 0,-0.433593 0,-0.460937 -0.40625,-0.460937 -1.08984,1.117187 -2.61719,1.117187 -3.16406,1.117187 l 0,0.546875 c 0.35547,0 1.36328,0 2.26172,-0.464844 l 0,9.027344 c 0,0.628906 -0.0547,0.820313 -1.60547,0.820313 l -0.54688,0 0,0.542969 c 0.60156,-0.05469 2.09766,-0.05469 2.8086,-0.05469 0.67968,0 2.20703,0 2.80468,0.05469 l 0,-0.542969 -0.54297,0 c -1.58203,0 -1.60937,-0.191407 -1.60937,-0.820313 z m 0,0"
       id="path3578"
       inkscape:connector-curvature="0" />
    <path
       style="fill:#ffffff;fill-opacity:1;fill-rule:nonzero;stroke:none"
       d="m 336.51562,34.972656 c 0,-0.492187 -0.41015,-0.925781 -0.89843,-0.925781 -0.51953,0 -0.92969,0.433594 -0.92969,0.925781 0,0.519532 0.41016,0.925782 0.92969,0.925782 0.48828,0 0.89843,-0.40625 0.89843,-0.925782 z m 0,0"
       id="path3580"
       inkscape:connector-curvature="0" />
    <path
       style="fill:#ffffff;fill-opacity:1;fill-rule:nonzero;stroke:none"
       d="m 346.00391,30.335938 c 0,-1.390626 -0.082,-2.78125 -0.6836,-4.066407 -0.78906,-1.691406 -2.23437,-1.960937 -2.9414,-1.960937 -1.0625,0 -2.31641,0.460937 -3.05469,2.070312 -0.54297,1.203125 -0.625,2.566406 -0.625,3.957032 0,1.308593 0.0547,2.863281 0.78906,4.199218 0.73828,1.390625 2.01953,1.746094 2.86328,1.746094 0.92578,0 2.26172,-0.355469 3.02344,-2.019531 0.54687,-1.199219 0.62891,-2.5625 0.62891,-3.925781 z m -3.65235,5.5625 c -0.68359,0 -1.71875,-0.433594 -2.01562,-2.097657 -0.19141,-1.039062 -0.19141,-2.648437 -0.19141,-3.683593 0,-1.117188 0,-2.265626 0.13672,-3.191407 0.32422,-2.074219 1.63281,-2.238281 2.07031,-2.238281 0.57031,0 1.71485,0.328125 2.04297,2.046875 0.19141,0.984375 0.19141,2.292969 0.19141,3.382813 0,1.308593 0,2.484374 -0.19141,3.601562 -0.27344,1.664062 -1.25391,2.179688 -2.04297,2.179688 z m 0,0"
       id="path3582"
       inkscape:connector-curvature="0" />
    <g
       clip-path="url(#clip1)"
       id="g3584"
       style="clip-rule:nonzero">
      <path
         style="fill:none;stroke:#ff0000;stroke-width:1.59404004;stroke-linecap:butt;stroke-linejoin:miter;stroke-miterlimit:10;stroke-opacity:1"
         d="m 0.001375,0.0505616 0.683073,0 0.680833,0.004475 0.683073,0 0.683073,0.0044751 0.678594,0 0.685312,0.0022375 0.683073,0 0.683073,0.0044751 0.680834,0 0.683072,0.0044751 0.683073,0 0.683073,0.0044751 0.680834,0.0022375 0.683073,0 1.368385,0.0089502 0.678594,0 2.051458,0.0111876 0.678594,0 2.051458,0.0111882 0.678594,0.004475 1.368385,0.00895 0.678594,0.002237 2.051458,0.013426 0.680834,0.002237 0.683073,0.004475 0.683072,0.00895 0.683073,0.002238 0.680834,0.004475 0.683073,0.00895 1.366146,0.006713 0.680833,0.00895 0.683073,0.002237 1.368385,0.015663 0.678594,0.004475 2.051458,0.024613 0.678594,0.006713 0.685313,0.004475 0.683072,0.011187 0.678594,0.006713 2.051459,0.024613 0.678593,0.011188 0.685313,0.00895 0.683073,0.011188 0.683073,0.006712 0.680833,0.013425 2.049219,0.033563 0.680833,0.013426 1.366146,0.022375 0.683073,0.015663 0.680833,0.011188 1.366146,0.031325 0.685312,0.013425 0.678594,0.013425 0.683073,0.020138 1.368386,0.031326 0.678593,0.020138 0.685313,0.015662 0.683073,0.020138 0.678593,0.017901 0.685313,0.020137 0.683073,0.024613 0.683073,0.017901 0.678594,0.024613 0.685312,0.0179 0.683073,0.024613 0.683073,0.02685 0.680833,0.024613 2.049219,0.080552 0.680833,0.029088 0.683073,0.02685 1.368386,0.062651 0.678593,0.031326 2.051459,0.105164 0.678593,0.0358 1.368386,0.076077 0.678594,0.040275 2.051458,0.12754 0.678594,0.046988 1.368385,0.093977 0.683073,0.051463 0.680833,0.051464 1.366146,0.109639 0.683073,0.058176 0.680833,0.058176 0.683073,0.058176 0.683073,0.062651 0.683073,0.067126 0.680834,0.064889 0.683072,0.067126 0.683073,0.071601 0.685313,0.073839 0.678594,0.073839 0.683073,0.078313 1.368385,0.163341 0.678594,0.087264 0.685312,0.085026 0.683073,0.089502 0.678594,0.093976 1.368385,0.194666 0.683073,0.105164 0.678594,0.107402 1.368385,0.217041 0.683073,0.11859 0.680834,0.120827 0.683073,0.120827 1.366145,0.257317 0.680834,0.136489 0.683073,0.13649 0.683073,0.14544 0.685312,0.147678 0.678594,0.152152 0.683073,0.156628 0.683073,0.161103 0.685315,0.167815 0.67859,0.17229 0.68307,0.174528 0.68532,0.181241 0.67859,0.185715 0.68307,0.196904 0.68531,0.199141 0.68308,0.201378 0.67859,0.212566 0.68532,0.214804 0.68307,0.225991 0.68307,0.230466 0.68083,0.234942 0.68308,0.241654 1.36614,0.507921 0.68084,0.266267 0.68307,0.27298 0.68307,0.281929 0.68308,0.288643 0.68083,0.295355 0.68307,0.306542 0.68307,0.311018 0.68532,0.324443 0.67859,0.333393 0.68307,0.337869 0.68532,0.349055 0.68307,0.358006 0.67859,0.371432 0.68308,0.380381 0.68531,0.389332 0.67859,0.398281 0.68307,0.411707 0.68532,0.420658 0.68307,0.434082 0.67859,0.440795 0.68532,0.456457 0.68307,0.469883 0.68307,0.476596 0.68084,0.487783 0.68307,0.503446 0.68307,0.516871 0.68307,0.525822 0.68084,0.539246 0.68307,0.55491 0.68307,0.566097 0.68308,0.583997 0.68083,0.592948 0.68307,0.60861 0.68307,0.61756 0.68532,0.637699 0.67859,0.646648 0.68307,0.664549 0.68532,0.680211 0.67859,0.691399 0.68307,0.711537 0.68532,0.71825 0.68307,0.738388 0.67859,0.749575 0.68531,0.765238 0.68308,0.785375 0.68307,0.796564 0.67859,0.809988 0.68532,0.827889 0.68307,0.839077 0.68307,0.859215 0.68084,0.868164 0.68307,0.886065 0.68307,0.89949 0.68307,0.917391 0.68084,0.928578 0.68307,0.946478 0.68307,0.959904 0.68532,0.968854 0.67859,0.988992 0.68307,1.000179 0.68308,1.015842 0.68083,1.022555 0.68307,1.038218 0.68307,1.056117 0.68532,1.062831 0.67859,1.074018 0.68307,1.089681 0.68532,1.096393 0.68307,1.109819 0.67859,1.121006 0.68532,1.129957 0.68307,1.141144 0.68307,1.143382 0.68083,1.156807 0.68308,1.16352 0.68307,1.17247 0.68307,1.179182 0.68084,1.183657 0.68307,1.190371 0.68307,1.197082 0.68308,1.19932 0.68083,1.206033 0.68307,1.203796 0.68307,1.210508 0.68532,1.214983 0.67859,1.214983 1.36839,2.421015 0.67859,1.210508 1.36839,2.429966 0.68307,1.210508 0.67859,1.208271 1.36839,2.405353 0.68307,1.197083 0.67859,1.185895 0.68532,1.188132 0.68307,1.174707 0.68307,1.17247 0.68084,1.16352 0.68307,1.156807 0.68307,1.147857 0.68307,1.136669 0.68084,1.134432 0.68307,1.116531 0.68307,1.105344 0.68308,1.100868 0.68083,1.094154 0.68307,1.07178 0.68308,1.0606 0.68083,1.05611 0.68307,1.03822 0.68308,1.02703 0.68531,1.01584 0.67859,0.99571 0.68307,0.98899 0.68532,0.96885 0.68307,0.95991 0.67859,0.94648 0.68532,0.92634 0.68307,0.91739 0.68307,0.89725 0.6786,0.88383 0.68531,0.87487 0.68307,0.85474 0.68308,0.84803 0.68083,0.82565 0.68307,0.81223 0.68307,0.79209 0.68308,0.78537 0.68083,0.76076 0.68307,0.75405 0.68308,0.73615 0.68531,0.72944 0.67859,0.70035 0.68307,0.69811 0.68532,0.67126 0.67859,0.66903 0.68307,0.64441 0.68308,0.63546 0.68531,0.62651 0.67859,0.60861 0.68308,0.59071 0.68531,0.58623 0.68307,0.55715 0.67859,0.55939 0.68532,0.54372 0.68307,0.52582 0.68307,0.5124 0.68084,0.49673 0.68307,0.49897 0.68307,0.46988 0.68308,0.47212 0.68083,0.44975 0.68307,0.45198 0.68307,0.42961 0.68308,0.42513 0.68083,0.41171 1.36615,0.7809 0.68083,0.3759 0.68307,0.37367 0.68308,0.36025 0.68531,0.34681 0.67859,0.34011 0.68307,0.33116 0.68532,0.3222 0.68307,0.31549 0.67859,0.30431 0.68308,0.29312 0.68531,0.28864 0.68307,0.28193 0.6786,0.27298 0.68531,0.26627 0.68307,0.25731 0.68307,0.25061 0.68084,0.24613 0.68307,0.23494 0.68307,0.23046 0.68308,0.22152 0.68083,0.2148 0.68307,0.21481 0.68308,0.20361 0.68531,0.19914 0.67859,0.19019 0.68307,0.18796 0.68308,0.18348 0.68083,0.17229 0.68308,0.17229 0.68307,0.16781 0.68531,0.16334 0.67859,0.15216 0.68308,0.15215 0.68531,0.14991 0.68307,0.14321 0.6786,0.13648 0.68531,0.13873 0.68307,0.13202 0.68307,0.1253 0.68084,0.12083 0.68307,0.12082 0.68307,0.11636 0.68308,0.11411 0.68083,0.10516 0.68307,0.10964 0.68307,0.0985 0.68308,0.10069 0.68083,0.094 0.68307,0.094 0.68308,0.0895 0.68083,0.0895 1.36615,0.17229 0.68531,0.0738 0.67859,0.0828 1.36615,0.14768 0.68531,0.0716 0.67859,0.0649 1.36839,0.13425 0.68307,0.0582 0.6786,0.0671 0.68531,0.0582 1.36614,0.10964 0.68084,0.0492 0.68307,0.0559 0.68308,0.0492 0.68307,0.047 0.68083,0.047 0.68307,0.047 0.68308,0.0425 0.68083,0.0447 0.68307,0.0425 1.36615,0.0783 0.68083,0.0358 0.68307,0.038 1.36839,0.0694 0.67859,0.0313 1.36839,0.0627 0.68307,0.0358 0.6786,0.0268 0.68531,0.0313 0.68307,0.0268 0.68307,0.0201 0.6786,0.0313 2.05146,0.0716 0.68083,0.0224 0.68307,0.0224 1.36615,0.0403 0.68083,0.0224 0.68307,0.0157 0.68308,0.0201 0.68083,0.0201 1.36615,0.038 0.68307,0.009 0.68083,0.0201 0.68308,0.0179 1.36838,0.0246 0.6786,0.0179 2.05145,0.0358 0.6786,0.0157 0.68531,0.009 0.68307,0.0157 0.68308,0.0112 0.68083,0.007 1.36615,0.0246 0.68307,0.007 0.68083,0.0134 1.36615,0.0157 0.68083,0.0112 2.04922,0.0224 0.68083,0.009 0.68307,0.0112 1.36839,0.007 0.6786,0.0134 1.36838,0.007 0.68307,0.009 0.6786,0.007 0.68307,0.004 0.68531,0.007 0.68307,0.004 0.6786,0.004 0.68531,0.004 0.68307,0.007 0.68308,0.004 0.68083,0.004 0.68307,0.007 1.36615,0.009 0.68083,0.002 0.68307,0.004 0.68308,0 0.68083,0.004 0.68307,0.007 0.68308,0 0.68307,0.004 0.68083,0.004 0.68308,0 0.68307,0.004 0.68531,0 0.6786,0.007 0.68307,0.004 0.68531,0 0.68307,0.004 0.6786,0.002 0.68531,0 1.36615,0.009 0.67859,0.004 2.05146,0 0.68083,0.002 0.68308,0 0.68307,0.004 0.68083,0.004 1.36615,0"
         transform="matrix(1.744186,0,0,-1.745781,63.231977,294.9828)"
         id="path3586"
         inkscape:connector-curvature="0" />
    </g>
    <path
       style="fill:none;stroke:#ff0000;stroke-width:1.59404004;stroke-linecap:butt;stroke-linejoin:miter;stroke-miterlimit:10;stroke-opacity:1"
       d="m 4.89583e-4,7.54154e-4 17.007395417,0"
       transform="matrix(1.744186,0,0,-1.745781,32.159302,29.30991)"
       id="path3604"
       inkscape:connector-curvature="0" />
    <path
       style="fill:#ffffff;fill-opacity:1;fill-rule:nonzero;stroke:none"
       d="m 71.81234,37.64164 c 0.571012,0.122359 2.68609,0.530226 2.68609,2.400584 0,1.305171 -0.897305,2.359796 -2.930809,2.359796 -2.190824,0 -3.128917,-1.46249 -3.618357,-3.699927 -0.07575,-0.326293 -0.07575,-0.407867 -0.361252,-0.407867 -0.326293,0 -0.326293,0.163146 -0.326293,0.611799 l 0,3.455208 c 0,0.448654 0,0.611801 0.285506,0.611801 0.122359,0 0.163146,-0.04079 0.64676,-0.530227 0.04078,-0.04079 0.04078,-0.08157 0.530226,-0.571012 1.136197,1.060452 2.31901,1.101239 2.84341,1.101239 2.971596,0 4.189367,-1.747998 4.189367,-3.618355 0,-1.345959 -0.774945,-2.161692 -1.095412,-2.441371 -0.856518,-0.85652 -1.870357,-1.060453 -2.971596,-1.264387 -1.462492,-0.285505 -3.169703,-0.611798 -3.169703,-2.115076 0,-0.938092 0.652586,-1.992718 2.890024,-1.992718 2.84341,0 3.006556,2.359798 3.047343,3.128916 0,0.24472 0.244719,0.24472 0.285506,0.24472 0.361252,0 0.361252,-0.122359 0.361252,-0.605972 l 0,-2.645303 c 0,-0.407867 0,-0.611801 -0.27968,-0.611801 -0.122359,0 -0.203933,0 -0.530226,0.326293 -0.08157,0.08157 -0.326293,0.326293 -0.448652,0.407867 -0.973051,-0.73416 -2.033504,-0.73416 -2.435543,-0.73416 -3.175531,0 -4.148582,1.747998 -4.148582,3.216317 0,0.89148 0.407865,1.625638 1.095412,2.196651 0.856518,0.646758 1.584851,0.809905 3.455209,1.176985 z m 0,0"
       id="path3606"
       inkscape:connector-curvature="0" />
    <path
       style="fill:#ffffff;fill-opacity:1;fill-rule:nonzero;stroke:none"
       d="m 81.222395,31.214834 -3.618356,0.285506 0,0.809906 c 1.666425,0 1.911144,0.163146 1.911144,1.427531 l 0,6.997819 c 0,1.136199 -0.285506,1.136199 -2.033504,1.136199 l 0,0.815731 c 0.815733,-0.04078 2.237438,-0.08157 2.849238,-0.08157 0.932265,0 1.82957,0.04079 2.721049,0.08157 l 0,-0.815731 c -1.747998,0 -1.829571,-0.116534 -1.829571,-1.136199 z m 0.08157,-4.515662 c 0,-0.815731 -0.605973,-1.386744 -1.340131,-1.386744 -0.815732,0 -1.380919,0.693373 -1.380919,1.386744 0,0.687547 0.565187,1.38092 1.380919,1.38092 0.734158,0 1.340131,-0.571014 1.340131,-1.38092 z m 0,0"
       id="path3608"
       inkscape:connector-curvature="0" />
    <path
       style="fill:#ffffff;fill-opacity:1;fill-rule:nonzero;stroke:none"
       d="m 89.601131,38.212652 c -2.272396,0 -2.272396,-2.604516 -2.272396,-3.175529 0,-0.687545 0.04079,-1.544065 0.402039,-2.196651 0.203933,-0.285506 0.815732,-1.013839 1.870357,-1.013839 2.237438,0 2.237438,2.56373 2.237438,3.169703 0,0.693372 0,1.549892 -0.407866,2.196651 -0.203933,0.285506 -0.809906,1.019665 -1.829572,1.019665 z m -3.006556,1.019666 c 0,-0.08157 0,-0.693373 0.407867,-1.223598 1.013838,0.734158 2.115076,0.815732 2.598689,0.815732 2.400584,0 4.189369,-1.794611 4.189369,-3.787329 0,-0.973053 -0.407865,-1.911145 -1.054625,-2.522944 0.932265,-0.891478 1.864531,-1.013839 2.313183,-1.013839 0.08157,0 0.203934,0 0.285506,0.04079 -0.285506,0.08157 -0.448652,0.36708 -0.448652,0.687546 0,0.448653 0.36708,0.734159 0.774945,0.734159 0.244721,0 0.728332,-0.163147 0.728332,-0.774946 0,-0.442826 -0.279679,-1.258558 -1.299344,-1.258558 -0.530226,0 -1.666425,0.163146 -2.761837,1.217771 -1.101238,-0.850691 -2.155863,-0.932265 -2.726877,-0.932265 -2.435543,0 -4.224328,1.788785 -4.224328,3.781502 0,1.142026 0.565186,2.115077 1.217772,2.686091 -0.326293,0.36708 -0.815732,1.223598 -0.815732,2.155863 0,0.815732 0.36708,1.794611 1.182812,2.319011 -1.584852,0.407866 -2.400584,1.549891 -2.400584,2.563731 0,1.876183 2.56373,3.297888 5.733433,3.297888 3.047344,0 5.733433,-1.305171 5.733433,-3.338675 0,-0.891479 -0.326293,-2.237438 -1.666424,-2.96577 -1.386745,-0.693373 -2.890023,-0.693373 -4.474874,-0.693373 -0.64676,0 -1.748,0 -1.951932,-0.04079 -0.809906,-0.122359 -1.340132,-0.897304 -1.340132,-1.747997 z m 3.740716,8.21559 c -2.645304,0 -4.434089,-1.340132 -4.434089,-2.726876 0,-1.176986 0.978879,-2.155865 2.115078,-2.196651 l 1.544066,0 c 2.237437,0 5.121633,0 5.121633,2.196651 0,1.427531 -1.829571,2.726876 -4.346688,2.726876 z m 0,0"
       id="path3610"
       inkscape:connector-curvature="0" />
    <path
       style="fill:#ffffff;fill-opacity:1;fill-rule:nonzero;stroke:none"
       d="m 105.36807,48.916227 c 0,-0.08157 0,-0.122361 -0.44865,-0.571014 -3.21049,-3.257101 -4.06701,-8.18063 -4.06701,-12.166065 0,-4.51566 0.97888,-9.031322 4.18937,-12.247638 0.32629,-0.326293 0.32629,-0.36708 0.32629,-0.448654 0,-0.203932 -0.0816,-0.285506 -0.24472,-0.285506 -0.2855,0 -2.59869,1.788785 -4.14858,5.086674 -1.299343,2.849237 -1.625636,5.739261 -1.625636,7.895124 0,2.033504 0.285506,5.168247 1.707206,8.134017 1.58486,3.175529 3.78151,4.882741 4.06701,4.882741 0.16315,0 0.24472,-0.08157 0.24472,-0.279679 z m 0,0"
       id="path3612"
       inkscape:connector-curvature="0" />
    <path
       style="fill:#ffffff;fill-opacity:1;fill-rule:nonzero;stroke:none"
       d="m 123.7104,36.179148 c 0,-1.992717 -0.28551,-5.127461 -1.70721,-8.099056 -1.54407,-3.169703 -3.78151,-4.882742 -4.0204,-4.882742 -0.16315,0 -0.28551,0.122361 -0.28551,0.285506 0,0.08157 0,0.122361 0.48362,0.611801 2.56373,2.56373 4.02622,6.671524 4.02622,12.084491 0,4.474874 -0.93227,9.031323 -4.14858,12.288425 -0.36126,0.326293 -0.36126,0.36708 -0.36126,0.448654 0,0.157318 0.12236,0.279679 0.28551,0.279679 0.23889,0 2.59869,-1.788785 4.10197,-5.080847 1.34013,-2.849236 1.62564,-5.739259 1.62564,-7.935911 z m 0,0"
       id="path3616"
       inkscape:connector-curvature="0" />
    <path
       style="fill:#ffffff;fill-opacity:1;fill-rule:nonzero;stroke:none"
       d="m 151.32294,34.186431 c 0.40786,0 0.89148,0 0.89148,-0.489439 0,-0.530227 -0.48362,-0.530227 -0.8507,-0.530227 l -15.52804,0 c -0.36708,0 -0.85652,0 -0.85652,0.530227 0,0.489439 0.48944,0.489439 0.85652,0.489439 z m 0.0408,5.045887 c 0.36708,0 0.8507,0 0.8507,-0.530225 0,-0.489441 -0.48362,-0.489441 -0.89148,-0.489441 l -15.48726,0 c -0.36708,0 -0.85652,0 -0.85652,0.489441 0,0.530225 0.48944,0.530225 0.85652,0.530225 z m 0,0"
       id="path3618"
       inkscape:connector-curvature="0" />
    <path
       style="fill:#ffffff;fill-opacity:1;fill-rule:nonzero;stroke:none"
       d="m 194.23046,20.919126 c 0,-0.489438 0,-0.489438 -0.53023,-0.489438 -1.17698,1.142024 -2.80262,1.142024 -3.53678,1.142024 l 0,0.652586 c 0.40787,0 1.62564,0 2.60452,-0.489438 l 0,9.235255 c 0,0.611799 0,0.856518 -1.78879,0.856518 l -0.69337,0 0,0.646759 c 0.32629,0 2.56373,-0.08157 3.21049,-0.08157 0.57101,0 2.84924,0.08157 3.2571,0.08157 l 0,-0.646759 -0.69337,0 c -1.82957,0 -1.82957,-0.244719 -1.82957,-0.856518 z m 0,0"
       id="path3620"
       inkscape:connector-curvature="0" />
    <path
       style="fill:#ffffff;fill-opacity:1;stroke:#ffffff;stroke-width:1.0359385;stroke-linecap:butt;stroke-linejoin:miter;stroke-miterlimit:10;stroke-opacity:1"
       d="m 163.97844,36.208281 58.72108,0"
       id="path3622"
       inkscape:connector-curvature="0" />
    <path
       style="fill:#ffffff;fill-opacity:1;fill-rule:nonzero;stroke:none"
       d="m 170.03817,40.083011 c 0,-0.48944 0,-0.48944 -0.53023,-0.48944 -1.17698,1.136198 -2.80262,1.136198 -3.53678,1.136198 l 0,0.652586 c 0.40787,0 1.62564,0 2.60452,-0.489438 l 0,9.235255 c 0,0.611799 0,0.856518 -1.78879,0.856518 l -0.69337,0 0,0.652586 c 0.32629,0 2.56373,-0.08157 3.21049,-0.08157 0.57101,0 2.84924,0.08157 3.25127,0.08157 l 0,-0.652586 -0.68754,0 c -1.82957,0 -1.82957,-0.244719 -1.82957,-0.856518 z m 0,0"
       id="path3624"
       inkscape:connector-curvature="0" />
    <path
       style="fill:#ffffff;fill-opacity:1;fill-rule:nonzero;stroke:none"
       d="m 182.68785,47.523655 5.57028,0 c 0.24472,0 0.64676,0 0.64676,-0.40204 0,-0.489439 -0.40204,-0.489439 -0.64676,-0.489439 l -5.57028,0 0,-5.576114 c 0,-0.203932 0,-0.652586 -0.40787,-0.652586 -0.44865,0 -0.44865,0.407867 -0.44865,0.652586 l 0,5.576114 -5.56446,0 c -0.24472,0 -0.69338,0 -0.69338,0.448652 0,0.442827 0.40787,0.442827 0.69338,0.442827 l 5.56446,0 0,5.576112 c 0,0.244721 0,0.693373 0.40786,0.693373 0.44866,0 0.44866,-0.448652 0.44866,-0.693373 z m 0,0"
       id="path3626"
       inkscape:connector-curvature="0" />
    <path
       style="fill:#ffffff;fill-opacity:1;fill-rule:nonzero;stroke:none"
       d="m 194.28873,47.482868 c 0.48943,0 1.95193,-0.04079 2.92498,-0.361253 1.34596,-0.489439 1.58485,-1.345958 1.58485,-1.876185 0,-1.013838 -1.01384,-1.625638 -2.23161,-1.625638 -2.19665,0 -5.12163,1.666425 -5.12163,4.801167 0,1.829572 1.13619,3.379464 3.25127,3.379464 3.08813,0 4.50984,-1.794612 4.50984,-2.033505 0,-0.122359 -0.16315,-0.326293 -0.3263,-0.326293 -0.0816,0 -0.12236,0.04079 -0.27968,0.203934 -1.42753,1.666424 -3.53678,1.666424 -3.86307,1.666424 -1.10124,0 -1.82957,-0.734159 -1.82957,-2.196651 0,-0.244719 0,-0.611799 0.24472,-1.631464 z m -1.01384,-0.483612 c 0.76911,-2.645304 2.76183,-2.849238 3.29206,-2.849238 0.76912,0 1.46249,0.407867 1.46249,1.095412 0,1.753826 -3.08813,1.753826 -3.86307,1.753826 z m 0,0"
       id="path3628"
       inkscape:connector-curvature="0" />
    <path
       style="fill:#ffffff;fill-opacity:1;fill-rule:nonzero;stroke:none"
       d="m 211.4832,43.5557 c 0.1981,0 0.5244,0 0.5244,-0.36708 0,-0.361254 -0.3263,-0.361254 -0.5244,-0.361254 l -8.78078,0 c -0.20393,0 -0.57101,0 -0.57101,0.361254 0,0.36708 0.36708,0.36708 0.57101,0.36708 z m 0,0"
       id="path3630"
       inkscape:connector-curvature="0" />
    <text
       xml:space="preserve"
       style="font-style:normal;font-weight:normal;font-size:24px;line-height:125%;font-family:STIXGeneral;letter-spacing:0px;word-spacing:0px;fill:#ffffff;fill-opacity:1;stroke:none;stroke-width:1px;stroke-linecap:butt;stroke-linejoin:miter;stroke-opacity:1;-inkscape-font-specification:STIXGeneral;font-stretch:normal;font-variant:normal;"
       x="700.95129"
       y="287.92929"
       id="text4306"
       sodipodi:linespacing="125%"><tspan
         sodipodi:role="line"
         id="tspan4308"
         x="700.95129"
         y="287.92929"
         style="font-size:24px;-inkscape-font-specification:STIXGeneral;font-family:STIXGeneral;font-weight:normal;font-style:normal;font-stretch:normal;font-variant:normal;fill:#ffffff;fill-opacity:1;">z</tspan></text>
    <text
       xml:space="preserve"
       style="font-style:normal;font-variant:normal;font-weight:normal;font-stretch:normal;font-size:24px;line-height:125%;font-family:STIXGeneral;-inkscape-font-specification:STIXGeneral;letter-spacing:0px;word-spacing:0px;fill:#ffffff;fill-opacity:1;stroke:none;stroke-width:1px;stroke-linecap:butt;stroke-linejoin:miter;stroke-opacity:1"
       x="370.08878"
       y="26.998487"
       id="text4318"
       sodipodi:linespacing="125%"><tspan
         sodipodi:role="line"
         id="tspan4320"
         x="370.08878"
         y="26.998487"
         style="font-style:normal;font-variant:normal;font-weight:normal;font-stretch:normal;font-size:24px;font-family:STIXGeneral;-inkscape-font-specification:STIXGeneral;fill:#ffffff;fill-opacity:1">sig(z)</tspan></text>
    <text
       xml:space="preserve"
       style="font-style:normal;font-variant:normal;font-weight:normal;font-stretch:normal;font-size:24px;line-height:125%;font-family:STIXGeneral;-inkscape-font-specification:STIXGeneral;letter-spacing:0px;word-spacing:0px;fill:#ffffff;fill-opacity:1;stroke:none;stroke-width:1px;stroke-linecap:butt;stroke-linejoin:miter;stroke-opacity:1"
       x="106.22919"
       y="41.195015"
       id="text4322"
       sodipodi:linespacing="125%"><tspan
         sodipodi:role="line"
         id="tspan4324"
         x="106.22919"
         y="41.195015">z</tspan></text>
    <text
       xml:space="preserve"
       style="font-style:normal;font-weight:normal;font-size:32px;line-height:125%;font-family:sans-serif;letter-spacing:0px;word-spacing:0px;fill:#000000;fill-opacity:1;stroke:none;stroke-width:1px;stroke-linecap:butt;stroke-linejoin:miter;stroke-opacity:1"
       x="212.48415"
       y="46.723713"
       id="text4326"
       sodipodi:linespacing="125%"><tspan
         sodipodi:role="line"
         id="tspan4328"
         x="212.48415"
         y="46.723713"
         style="font-style:normal;font-variant:normal;font-weight:normal;font-stretch:normal;font-size:18px;font-family:STIXGeneral;-inkscape-font-specification:STIXGeneral;fill:#ffffff;fill-opacity:1">z</tspan></text>
  </g>
  <g
     inkscape:groupmode="layer"
     id="layer1"
     inkscape:label="Layer 1"
     style="display:inline" />
</svg>
